<svg xmlns="http://www.w3.org/2000/svg" width="287" height="93" fill="none"><path fill="#00B58A" d="M42.72 81.867v8.96H5.6v-8.96h14.24v-65.76q-1.6 4.96-4.48 7.84-2.72 2.72-5.92 4.16-3.04 1.28-5.6 1.76-2.56.32-3.36.32v-10.88q.96.159 4-.48 3.2-.64 6.88-2.56t6.4-5.6q2.72-3.84 2.88-9.92h9.28v81.12zm18.413 8.96q-4 0-5.44-2.08-1.28-2.24-1.28-5.12 0-3.04 1.44-5.12t5.28-2.08q3.999 0 5.28 2.08 1.44 2.08 1.44 5.12t-1.44 5.12q-1.281 2.08-5.28 2.08m21.572 0v-8.48q.16-.16 3.2-2.08 3.04-2.08 7.84-5.44 4.96-3.36 10.72-7.84a193 193 0 0 0 11.52-9.44q5.76-5.12 10.4-10.4t7.2-10.24q3.84-8.001 2.24-14.4-1.44-6.4-6.88-10.08t-13.6-3.68q-9.44.16-15.36 5.92-5.76 5.6-5.44 16.8l-9.44-.96q-.32-9.6 3.52-16.32t11.04-10.24q7.2-3.68 16.64-3.68 8.64 0 15.2 3.04 6.72 3.04 10.56 8.48 3.84 5.28 4.16 12.32.48 6.879-3.36 14.4-2.88 5.6-8.32 11.52-5.44 5.919-12 11.52-6.56 5.44-12.8 9.92-6.08 4.32-10.56 7.2-4.32 2.72-5.44 3.2h54.4v8.96zm113.15 1.6q-8.96 0-15.84-2.88-6.88-3.04-11.36-8.32-4.32-5.44-6.24-12.64l10.4-1.12q0 .64.96 3.2 1.12 2.56 3.52 5.6 2.56 2.88 7.04 5.12 4.64 2.24 11.68 2.24 7.84 0 13.12-3.04 5.28-3.201 8.16-8.16 2.88-4.96 3.2-10.24.48-5.92-2.08-11.2t-7.84-8.8-13.44-3.52q-5.92 0-10.08 1.6-4.16 1.44-6.72 3.52-2.56 1.92-3.68 3.52t-1.12 1.76l-10.08-2.08 4.48-46.24h56.16v9.12h-48.32l-3.52 32.32 1.28-1.6q1.44-1.761 4.48-3.84 3.04-2.241 7.84-3.84 4.8-1.76 11.52-1.76 11.04 0 18.08 4.64 7.04 4.48 10.24 11.68 3.2 7.04 2.72 14.88-.48 7.52-4.64 14.56-4.16 6.88-11.68 11.2t-18.24 4.32m84.766-16.96-14.08-14.08-13.76 13.76-5.6-5.6 13.92-13.76-13.76-13.76 5.6-5.6 13.6 13.76 13.92-13.92 5.6 5.6-13.92 13.92 13.92 14.08z"/></svg>