<svg xmlns="http://www.w3.org/2000/svg" xml:space="preserve" viewBox="0 0 545.8 107.1"><path d="m.8 72.7 6.9-1.1V7.9L0 6.9.4 0h48.2l-1.2 19.3-9.6-.3-.6-12.1H22.3v28.7h6.5l1.5-6.6 6.7.2V49h-6.7l-1.6-6.8h-6.5v30.4h15l1.4-13.2 10.1.3.8 20.1H.5zM54 79.9l.3-5.9 5.4-1.1V32.7l-6.3-.6v-6l15.8-2.3 1.2 3.4v2.3c3.8-4 8.4-6.4 14.3-6.4 8.6 0 15 5.2 15 15.5v34.2l5.7 1.1-.3 5.9H86.3V41.6c0-5.5-2-8.6-7-8.6-1.7 0-2.9.3-4.2.8-.8.7-1.6 1.7-2.3 2.6V73l5.7 1.1-.4 5.9H54zm302.1 0 .2-5.9 5.4-1.1V32.7l-6.3-.6v-6l15.8-2.3 1.2 3.4v2.3c3.8-4 8.4-6.4 14.3-6.4 8.6 0 15 5.2 15 15.5v34.2l5.7 1.1-.3 5.9h-18.7V41.6c0-5.5-2-8.6-7-8.6-1.7 0-2.9.3-4.2.8-.8.7-1.6 1.7-2.3 2.6V73l5.7 1.1-.4 5.9h-24.1zm-220.9-1.1c-2.2.9-6.1 1.9-11.2 1.9-6.7 0-12.9-3-12.9-12.8V32.7l-6.4-1 .3-7 7.2-.3 3.1-10.7 9.2-.4v11.5h9.9l-.7 7-9.1 1V68c0 2.9 1.6 4.8 4.6 4.8h5.4zm374.3 1.1.2-5.8 5.1-1.2V32.7l-6-.6v-6l16.4-2.3 1.1 3.9V29c4.3-3.2 10.1-5.3 17.1-5.3l2.4 2.1-1.7 15.2-9-.3-.9-8.1c-2.1.3-4.1.9-5.8 2.1V73l5.7 1.2-.4 5.8h-24.2zm-235.5 0 .3-5.8 5.1-1.2V32.7l-6-.6v-6l16.4-2.3 1.1 3.9V29c4.3-3.2 10.1-5.3 17.1-5.3l2.4 2.1-1.9 15.2-9-.3-.9-8.1c-2.1.3-4.1.9-5.8 2.1V73l5.7 1.2-.4 5.8H274zm-134.8 0 .3-5.8 5.1-1.2V32.7l-6-.6v-6l16.4-2.3 1.1 3.9V29c4.3-3.2 10.1-5.3 17-5.3l2.4 2.1-1.7 15.2-9-.3-.9-8.1c-2.1.3-4.1.9-5.8 2.1V73l5.7 1.2-.4 5.8h-24.2zM191 55.4c0 9.6 4.2 17 12.5 17 4.3 0 7.7-.9 11.7-2.8l2.3 5.3c-4.1 3.3-10.1 5.8-17.6 5.8-14.6 0-23-12.6-23-28.8 0-13.8 6.1-28.9 22.8-28.9 14.6 0 20.1 13.5 20.1 28.5l-1.4 3.6zm-.2-6.4 16.8-.8c-.3-6.7-1.7-17.3-8.3-17.3-1.6 0-2.7.3-4.7 1.3-2.7 4.6-3.8 12.9-3.8 16.8m232.6 6.4c0 9.6 4.2 17 12.5 17 4.3 0 7.7-.9 11.7-2.8l2.3 5.3c-4.1 3.3-10.1 5.8-17.6 5.8-14.6 0-23-12.6-23-28.8 0-13.8 6.1-28.9 22.8-28.9 14.6 0 20.1 13.5 20.1 28.5l-1.4 3.6zm-.2-6.4 16.8-.8c-.3-6.7-1.7-17.3-8.3-17.3-1.6 0-2.7.3-4.7 1.3-2.7 4.6-3.8 12.9-3.8 16.8m-97.4 6.4c0 9.6 4.2 17 12.5 17 4.3 0 7.7-.9 11.7-2.8l2.3 5.3c-4.1 3.3-10.1 5.8-17.6 5.8-14.6 0-23-12.6-23-28.8 0-13.8 6.1-28.9 22.8-28.9 14.6 0 20.1 13.5 20.1 28.5l-1.4 3.6zm-.2-6.4 16.8-.8c-.3-6.7-1.7-17.3-8.3-17.3-1.6 0-2.7.3-4.7 1.3-2.7 4.6-3.9 12.9-3.8 16.8M490 79.9l-1.4-4.8c-3.7 3.5-7.3 5.6-12.9 5.6-8.6 0-16.3-4.3-16.3-16.2V31.3l-6.3-.6v-5.3l18.2-2.1 1.4 4.8v34.8c0 6.1 2.5 9.3 7.4 9.3 1.4 0 3.2-.2 4.8-.8.9-.9 1.8-2 2.5-3.1v-37l-6.5-.6v-5.3l18.4-2.1 1.4 4.8v44.8l5.7 1.1-.7 5.9zm-242.9-7.2c-2.9 0-5.2-.5-7-1.5V35.9c.8-1.2 1.7-2.3 2.6-3.3 1.7-.6 3.2-.8 5-.8 7.5 0 8.8 7.6 8.8 21.2 0 13.1-2 16.7-2.5 18.2-2.1 1-4.3 1.5-6.9 1.5m22.4-22.1c0-16.9-5-27.5-17.5-27.5-8.3 0-12.2 4.8-13.8 6.8V28l-1.4-4.8-16.3 2.3v5.8l6.3.8v68.2l-5.4 1.1-.3 5.7h24.1l.4-5.7-5.7-1.1V78.7c2.3 1.3 5.5 2.1 9 2.1 20.4 0 20.6-20.7 20.6-30.2" style="fill:#fff"/></svg>