<svg xmlns="http://www.w3.org/2000/svg" width="133" height="78" fill="none"><path fill="#00B58A" d="M132.64 38.267c0 22.08-12 39.04-32.48 39.04-14.4 0-24.48-5.92-33.92-25.12-7.84 16-18.72 24.32-34.08 24.48-18.72.16-32-14.56-32-37.76C.16 16.827 13.12.346 32.8.346c11.84 0 24.16 5.6 34.08 25.76 9.6-19.36 18.88-25.28 33.6-25.28 19.04 0 32.16 15.2 32.16 37.44m-121.6.64c0 14.24 7.36 27.04 21.6 27.04 11.68 0 20.32-9.12 28.32-26.4-7.68-18.4-15.68-28.64-28-28.64-13.92 0-21.92 13.12-21.92 28m88.8-27.36c-12.64 0-19.2 9.92-27.52 27.36 7.36 17.76 15.04 27.68 27.2 27.68 14.08 0 22.56-12.8 22.56-27.52 0-15.2-8.8-27.52-22.24-27.52"/></svg>