<svg xmlns="http://www.w3.org/2000/svg" width="111" height="23" fill="none"><path fill="#fff" d="M41.09 1.042h4.168l7.09 12.823 7.088-12.823h4.079v21.071h-3.401V5.963l-6.216 11.183h-3.191L44.49 5.964v16.149h-3.402zM74.487 22.49q-2.363 0-4.154-1.047a7.3 7.3 0 0 1-2.792-2.897q-1.002-1.851-1.001-4.244 0-2.423.978-4.29t2.717-2.92T74.23 6.04q2.243 0 3.86 1.06 1.618 1.063 2.491 2.973.873 1.912.873 4.486v.933H69.911q.315 1.926 1.558 3.032 1.242 1.107 3.138 1.107 1.52 0 2.619-.452 1.099-.451 2.062-1.37l1.806 2.213q-2.695 2.469-6.607 2.468m2.483-12.5q-1.07-1.091-2.8-1.092-1.685 0-2.822 1.114-1.136 1.114-1.437 2.995h8.278q-.15-1.926-1.219-3.017m8.61-.79h-3.131V6.415h3.13V1.81h3.281v4.605h4.756V9.2H88.86v7.058q0 1.761.602 2.514t2.062.752a10 10 0 0 0 1.099-.052q.451-.053.993-.143v2.754q-.619.18-1.257.271a10 10 0 0 1-1.467.105q-5.313 0-5.313-5.81zm25.134 12.913h-3.221v-2.197a5.8 5.8 0 0 1-2.182 1.904q-1.324.67-3.01.67-2.077 0-3.68-1.062-1.604-1.06-2.52-2.92-.92-1.858-.919-4.251 0-2.409.933-4.26t2.581-2.905q1.65-1.053 3.786-1.053 1.61 0 2.889.625a5.7 5.7 0 0 1 2.122 1.768V6.415h3.221zm-3.281-10.204q-.526-1.34-1.663-2.115t-2.626-.775q-2.108 0-3.356 1.415-1.25 1.414-1.25 3.823 0 2.422 1.204 3.838 1.205 1.414 3.266 1.414 1.52 0 2.71-.782a4.42 4.42 0 0 0 1.715-2.108zM24.655.33c-2.736 0-4.874 2.06-6.81 4.677C15.186 1.62 12.963.33 10.3.33 4.873.33.714 7.393.714 14.868c0 4.678 2.263 7.629 6.054 7.629 2.729 0 4.69-1.287 8.179-7.384l2.454-4.337q.526.849 1.108 1.83l1.636 2.751c3.186 5.333 4.962 7.14 8.179 7.14 3.692 0 5.748-2.991 5.748-7.766C34.072 6.903 29.82.33 24.655.33M12.287 13.462c-2.828 4.433-3.807 5.427-5.381 5.427-1.62 0-2.584-1.423-2.584-3.96 0-5.427 2.706-10.976 5.932-10.976 1.747 0 3.206 1.009 5.442 4.21a437 437 0 0 0-3.409 5.299m10.674-.558-1.956-3.262a68 68 0 0 0-1.526-2.377c1.763-2.72 3.217-4.076 4.946-4.076 3.593 0 6.467 5.29 6.467 11.786 0 2.477-.811 3.914-2.492 3.914-1.61 0-2.38-1.064-5.44-5.985"/></svg>