<svg xmlns="http://www.w3.org/2000/svg" width="121" height="33" fill="none"><g clip-path="url(#a)"><mask id="b" width="121" height="33" x="0" y="0" maskUnits="userSpaceOnUse" style="mask-type:luminance"><path fill="#fff" d="M120.143.142h-120v32.542h120z"/></mask><g fill="#fff" mask="url(#b)"><path d="M37.51 15.787c0 5.32 3.416 9.03 8.151 9.03s8.152-3.71 8.152-9.03-3.417-9.03-8.152-9.03-8.151 3.71-8.151 9.03m13.18 0c0 3.807-2.075 6.272-5.029 6.272s-5.027-2.465-5.027-6.272 2.074-6.273 5.027-6.273 5.028 2.465 5.028 6.273m11.921 9.03c3.589 0 5.639-3.026 5.639-6.663 0-3.636-2.05-6.663-5.638-6.663-1.66 0-2.88.66-3.685 1.611v-1.367h-2.93v17.207h2.93v-5.736c.805.952 2.025 1.611 3.685 1.611m-3.758-7.029c0-2.416 1.367-3.734 3.173-3.734 2.124 0 3.27 1.66 3.27 4.1s-1.146 4.1-3.27 4.1c-1.806 0-3.173-1.342-3.173-3.71zm17.322 7.029c2.563 0 4.588-1.342 5.492-3.587l-2.514-.952c-.39 1.318-1.538 2.05-2.978 2.05-1.88 0-3.197-1.343-3.417-3.54h8.982v-.975c0-3.515-1.977-6.322-5.687-6.322s-6.102 2.905-6.102 6.663c0 3.954 2.563 6.663 6.224 6.663m-.146-10.86c1.855 0 2.733 1.22 2.758 2.635h-5.883c.44-1.733 1.611-2.636 3.125-2.636m7.908 10.593h2.93v-7.517c0-1.831 1.342-2.807 2.66-2.807 1.61 0 2.245 1.147 2.245 2.733v7.59h2.929v-8.444c0-2.758-1.611-4.613-4.296-4.613-1.66 0-2.807.757-3.539 1.611v-1.367h-2.929zm19.342-17.524L96.64 24.549h3.1l1.489-4.003h7.566l1.513 4.003h3.148l-6.638-17.524zm1.708 3.465 2.783 7.322h-5.516zm13.497-3.414h-3.124V24.6h3.124zm-88.132 6.385a8.1 8.1 0 0 0-.696-6.659 8.2 8.2 0 0 0-8.831-3.934A8.1 8.1 0 0 0 14.71.142a8.2 8.2 0 0 0-7.822 5.677A8.1 8.1 0 0 0 1.467 9.75a8.2 8.2 0 0 0 1.009 9.614 8.1 8.1 0 0 0 .696 6.66 8.2 8.2 0 0 0 8.832 3.933 8.1 8.1 0 0 0 6.114 2.725 8.2 8.2 0 0 0 7.825-5.68 8.1 8.1 0 0 0 5.421-3.933 8.2 8.2 0 0 0-1.01-9.611zM18.12 30.557a6.08 6.08 0 0 1-3.904-1.412c.05-.026.137-.074.193-.108l6.48-3.743a1.05 1.05 0 0 0 .532-.922v-9.135l2.74 1.58a.1.1 0 0 1 .052.076v7.565a6.106 6.106 0 0 1-6.093 6.099M5.018 24.96a6.07 6.07 0 0 1-.727-4.086c.048.028.132.08.192.114l6.48 3.743c.329.192.735.192 1.065 0l7.91-4.568v3.162a.1.1 0 0 1-.038.085l-6.55 3.782a6.106 6.106 0 0 1-8.33-2.232zM3.313 10.816a6.08 6.08 0 0 1 3.174-2.674c0 .056-.004.155-.004.224v7.486c-.002.38.202.733.532.921l7.911 4.567-2.738 1.582a.1.1 0 0 1-.093.008l-6.551-3.785a6.106 6.106 0 0 1-2.232-8.328zm22.5 5.236-7.91-4.568 2.738-1.58a.1.1 0 0 1 .093-.008l6.551 3.782a6.1 6.1 0 0 1-.942 11.005v-7.71a1.05 1.05 0 0 0-.528-.92zm2.726-4.102-.192-.115-6.48-3.743a1.06 1.06 0 0 0-1.065 0l-7.91 4.569V9.498a.1.1 0 0 1 .038-.084l6.55-3.78a6.098 6.098 0 0 1 9.057 6.316zm-17.137 5.637-2.74-1.582a.1.1 0 0 1-.052-.075V8.365a6.1 6.1 0 0 1 10.002-4.684 5 5 0 0 0-.193.109l-6.48 3.742c-.331.188-.534.54-.533.922l-.004 9.13zm1.488-3.208 3.524-2.035 3.524 2.034v4.07l-3.524 2.033-3.524-2.034z"/></g></g><defs><clipPath id="a"><path fill="#fff" d="M.143.142h120v32.542h-120z"/></clipPath></defs></svg>