<svg width="287" height="93" viewBox="0 0 287 93" fill="none" xmlns="http://www.w3.org/2000/svg">
<path d="M42.72 81.8665V90.8265H5.6V81.8665H19.84V16.1065C18.7733 19.4132 17.28 22.0265 15.36 23.9465C13.5467 25.7599 11.5733 27.1465 9.44 28.1065C7.41333 28.9599 5.54667 29.5465 3.84 29.8665C2.13333 30.0799 1.01333 30.1865 0.48 30.1865V19.3065C1.12 19.4132 2.45333 19.2532 4.48 18.8265C6.61333 18.3999 8.90667 17.5465 11.36 16.2665C13.8133 14.9865 15.9467 13.1199 17.76 10.6665C19.5733 8.10653 20.5333 4.79987 20.64 0.746534H29.92V81.8665H42.72ZM61.1325 90.8265C58.4658 90.8265 56.6525 90.1332 55.6925 88.7465C54.8392 87.2532 54.4125 85.5465 54.4125 83.6265C54.4125 81.5999 54.8925 79.8932 55.8525 78.5065C56.8125 77.1199 58.5725 76.4265 61.1325 76.4265C63.7992 76.4265 65.5592 77.1199 66.4125 78.5065C67.3725 79.8932 67.8525 81.5999 67.8525 83.6265C67.8525 85.6532 67.3725 87.3599 66.4125 88.7465C65.5592 90.1332 63.7992 90.8265 61.1325 90.8265ZM82.705 90.8265V82.3465C82.8117 82.2399 83.8783 81.5465 85.905 80.2665C87.9317 78.8799 90.545 77.0665 93.745 74.8265C97.0517 72.5865 100.625 69.9732 104.465 66.9865C108.412 63.9999 112.252 60.8532 115.985 57.5465C119.825 54.1332 123.292 50.6665 126.385 47.1465C129.478 43.6265 131.878 40.2132 133.585 36.9065C136.145 31.5732 136.892 26.7732 135.825 22.5065C134.865 18.2399 132.572 14.8799 128.945 12.4265C125.318 9.9732 120.785 8.74654 115.345 8.74654C109.052 8.8532 103.932 10.8265 99.985 14.6665C96.145 18.3999 94.3317 23.9999 94.545 31.4665L85.105 30.5065C84.8917 24.1065 86.065 18.6665 88.625 14.1865C91.185 9.70653 94.865 6.2932 99.665 3.94653C104.465 1.4932 110.012 0.266531 116.305 0.266531C122.065 0.266531 127.132 1.27986 131.505 3.30653C135.985 5.3332 139.505 8.15987 142.065 11.7865C144.625 15.3065 146.012 19.4132 146.225 24.1065C146.545 28.6932 145.425 33.4932 142.865 38.5065C140.945 42.2399 138.172 46.0799 134.545 50.0265C130.918 53.9732 126.918 57.8132 122.545 61.5465C118.172 65.1732 113.905 68.4799 109.745 71.4665C105.692 74.3465 102.172 76.7465 99.185 78.6665C96.305 80.4799 94.4917 81.5465 93.745 81.8665H148.145V90.8265H82.705ZM195.855 92.4265C189.882 92.4265 184.602 91.4665 180.015 89.5465C175.428 87.5199 171.642 84.7465 168.655 81.2265C165.775 77.5999 163.695 73.3865 162.415 68.5865L172.815 67.4665C172.815 67.8932 173.135 68.9599 173.775 70.6665C174.522 72.3732 175.695 74.2399 177.295 76.2665C179.002 78.1865 181.348 79.8932 184.335 81.3865C187.428 82.8799 191.322 83.6265 196.015 83.6265C201.242 83.6265 205.615 82.6132 209.135 80.5865C212.655 78.4532 215.375 75.7332 217.295 72.4265C219.215 69.1199 220.282 65.7065 220.495 62.1865C220.815 58.2399 220.122 54.5065 218.415 50.9865C216.708 47.4665 214.095 44.5332 210.575 42.1865C207.055 39.8399 202.575 38.6665 197.135 38.6665C193.188 38.6665 189.828 39.1999 187.055 40.2665C184.282 41.2265 182.042 42.3999 180.335 43.7865C178.628 45.0665 177.402 46.2399 176.655 47.3065C175.908 48.3732 175.535 48.9599 175.535 49.0665L165.455 46.9865L169.935 0.746534H226.095V9.86653H177.775L174.255 42.1865C174.255 42.1865 174.682 41.6532 175.535 40.5865C176.495 39.4132 177.988 38.1332 180.015 36.7465C182.042 35.2532 184.655 33.9732 187.855 32.9065C191.055 31.7332 194.895 31.1465 199.375 31.1465C206.735 31.1465 212.762 32.6932 217.455 35.7865C222.148 38.7732 225.562 42.6665 227.695 47.4665C229.828 52.1599 230.735 57.1199 230.415 62.3465C230.095 67.3599 228.548 72.2132 225.775 76.9065C223.002 81.4932 219.108 85.2265 214.095 88.1065C209.082 90.9865 203.002 92.4265 195.855 92.4265ZM280.621 75.4665L266.541 61.3865L252.781 75.1465L247.181 69.5465L261.101 55.7865L247.341 42.0265L252.941 36.4265L266.541 50.1865L280.461 36.2665L286.061 41.8665L272.141 55.7865L286.061 69.8665L280.621 75.4665Z" fill="#00B58A"/>
</svg>
