<svg width="123" height="91" viewBox="0 0 123 91" fill="none" xmlns="http://www.w3.org/2000/svg">
<path d="M0.0800004 90.8265V82.3465C0.186667 82.2399 1.25333 81.5465 3.28 80.2665C5.30667 78.8799 7.92 77.0665 11.12 74.8265C14.4267 72.5865 18 69.9732 21.84 66.9865C25.7867 63.9999 29.6267 60.8532 33.36 57.5465C37.2 54.1332 40.6667 50.6665 43.76 47.1465C46.8533 43.6265 49.2533 40.2132 50.96 36.9065C53.52 31.5732 54.2667 26.7732 53.2 22.5065C52.24 18.2399 49.9467 14.8799 46.32 12.4265C42.6933 9.9732 38.16 8.74654 32.72 8.74654C26.4267 8.8532 21.3067 10.8265 17.36 14.6665C13.52 18.3999 11.7067 23.9999 11.92 31.4665L2.48 30.5065C2.26667 24.1065 3.44 18.6665 6 14.1865C8.56 9.70653 12.24 6.2932 17.04 3.94653C21.84 1.4932 27.3867 0.266531 33.68 0.266531C39.44 0.266531 44.5067 1.27986 48.88 3.30653C53.36 5.3332 56.88 8.15987 59.44 11.7865C62 15.3065 63.3867 19.4132 63.6 24.1065C63.92 28.6932 62.8 33.4932 60.24 38.5065C58.32 42.2399 55.5467 46.0799 51.92 50.0265C48.2933 53.9732 44.2933 57.8132 39.92 61.5465C35.5467 65.1732 31.28 68.4799 27.12 71.4665C23.0667 74.3465 19.5467 76.7465 16.56 78.6665C13.68 80.4799 11.8667 81.5465 11.12 81.8665H65.52V90.8265H0.0800004ZM116.59 75.4665L102.51 61.3865L88.75 75.1465L83.15 69.5465L97.07 55.7865L83.31 42.0265L88.91 36.4265L102.51 50.1865L116.43 36.2665L122.03 41.8665L108.11 55.7865L122.03 69.8665L116.59 75.4665Z" fill="#00B58A"/>
</svg>
