<svg width="124" height="93" viewBox="0 0 124 93" fill="none" xmlns="http://www.w3.org/2000/svg">
<path d="M33.48 92.4265C27.5067 92.4265 22.2267 91.4665 17.64 89.5465C13.0533 87.5199 9.26667 84.7465 6.28 81.2265C3.4 77.5999 1.32 73.3865 0.0400006 68.5865L10.44 67.4665C10.44 67.8932 10.76 68.9599 11.4 70.6665C12.1467 72.3732 13.32 74.2399 14.92 76.2665C16.6267 78.1865 18.9733 79.8932 21.96 81.3865C25.0533 82.8799 28.9467 83.6265 33.64 83.6265C38.8667 83.6265 43.24 82.6132 46.76 80.5865C50.28 78.4532 53 75.7332 54.92 72.4265C56.84 69.1199 57.9067 65.7065 58.12 62.1865C58.44 58.2399 57.7467 54.5065 56.04 50.9865C54.3333 47.4665 51.72 44.5332 48.2 42.1865C44.68 39.8399 40.2 38.6665 34.76 38.6665C30.8133 38.6665 27.4533 39.1999 24.68 40.2665C21.9067 41.2265 19.6667 42.3999 17.96 43.7865C16.2533 45.0665 15.0267 46.2399 14.28 47.3065C13.5333 48.3732 13.16 48.9599 13.16 49.0665L3.08 46.9865L7.56 0.746534H63.72V9.86653H15.4L11.88 42.1865C11.88 42.1865 12.3067 41.6532 13.16 40.5865C14.12 39.4132 15.6133 38.1332 17.64 36.7465C19.6667 35.2532 22.28 33.9732 25.48 32.9065C28.68 31.7332 32.52 31.1465 37 31.1465C44.36 31.1465 50.3867 32.6932 55.08 35.7865C59.7733 38.7732 63.1867 42.6665 65.32 47.4665C67.4533 52.1599 68.36 57.1199 68.04 62.3465C67.72 67.3599 66.1733 72.2132 63.4 76.9065C60.6267 81.4932 56.7333 85.2265 51.72 88.1065C46.7067 90.9865 40.6267 92.4265 33.48 92.4265ZM118.246 75.4665L104.166 61.3865L90.4063 75.1465L84.8063 69.5465L98.7263 55.7865L84.9662 42.0265L90.5663 36.4265L104.166 50.1865L118.086 36.2665L123.686 41.8665L109.766 55.7865L123.686 69.8665L118.246 75.4665Z" fill="#00B58A"/>
</svg>
