<svg width="133" height="78" viewBox="0 0 133 78" fill="none" xmlns="http://www.w3.org/2000/svg">
<path d="M132.64 38.2665C132.64 60.3465 120.64 77.3065 100.16 77.3065C85.76 77.3065 75.68 71.3865 66.24 52.1865C58.4 68.1865 47.52 76.5065 32.16 76.6665C13.44 76.8265 0.16 62.1065 0.16 38.9065C0.16 16.8265 13.12 0.346536 32.8 0.346536C44.64 0.346536 56.96 5.94654 66.88 26.1065C76.48 6.74653 85.76 0.826534 100.48 0.826534C119.52 0.826534 132.64 16.0265 132.64 38.2665ZM11.04 38.9065C11.04 53.1465 18.4 65.9465 32.64 65.9465C44.32 65.9465 52.96 56.8265 60.96 39.5465C53.28 21.1465 45.28 10.9065 32.96 10.9065C19.04 10.9065 11.04 24.0265 11.04 38.9065ZM99.84 11.5465C87.2 11.5465 80.64 21.4665 72.32 38.9065C79.68 56.6665 87.36 66.5865 99.52 66.5865C113.6 66.5865 122.08 53.7865 122.08 39.0665C122.08 23.8665 113.28 11.5465 99.84 11.5465Z" fill="#00B58A"/>
</svg>
