<svg width="111" height="23" viewBox="0 0 111 23" fill="none" xmlns="http://www.w3.org/2000/svg">
<path d="M41.0894 1.04199H45.2584L52.3473 13.8653L59.4361 1.042H63.5149V22.113H60.1135V5.96366L53.8975 17.1464H50.7068L44.4908 5.96366V22.113H41.0894V1.04199Z" fill="white"/>
<path d="M74.4865 22.4894C72.9111 22.4894 71.5265 22.1407 70.3326 21.4433C69.1384 20.746 68.2078 19.7802 67.5407 18.5461C66.8733 17.3119 66.5397 15.8971 66.5398 14.3018C66.5398 12.6864 66.8659 11.2566 67.5181 10.0123C68.1703 8.76827 69.0758 7.79496 70.2348 7.09235C71.3937 6.39019 72.7257 6.03901 74.2307 6.03882C75.7257 6.03882 77.0125 6.39249 78.0913 7.09985C79.1697 7.80739 80 8.79826 80.5821 10.0725C81.1639 11.3468 81.4549 12.8419 81.455 14.5576V15.4906H69.9111C70.1219 16.7752 70.6412 17.7861 71.469 18.5234C72.2967 19.2609 73.3427 19.6296 74.607 19.6296C75.6203 19.6296 76.4933 19.4791 77.2258 19.1781C77.9581 18.8771 78.6455 18.4205 79.2878 17.8085L81.0938 20.0209C79.2976 21.6667 77.0952 22.4895 74.4865 22.4894ZM76.97 9.98961C76.2574 9.26226 75.3243 8.89853 74.1705 8.8984C73.0467 8.8984 72.106 9.26969 71.3485 10.0123C70.5908 10.7548 70.1117 11.7532 69.9111 13.0074H78.1891C78.0887 11.723 77.6823 10.7171 76.97 9.98961Z" fill="white"/>
<path d="M85.5792 9.19972H82.4486V6.41529H85.5792V1.80981H88.8602V6.41529H93.6162V9.19972H88.8602V16.2584C88.8602 17.4323 89.0609 18.2701 89.4623 18.7719C89.8634 19.2737 90.5507 19.5246 91.5242 19.5244C91.9555 19.5244 92.3217 19.5068 92.6229 19.4717C92.924 19.4367 93.255 19.3891 93.6162 19.3287V22.083C93.2041 22.2022 92.7842 22.2927 92.3595 22.354C91.8736 22.4255 91.3831 22.4607 90.892 22.4593C87.35 22.4593 85.579 20.5228 85.5792 16.6498V9.19972Z" fill="white"/>
<path d="M110.714 22.113H107.493V19.9156C106.922 20.7385 106.194 21.3731 105.311 21.8195C104.428 22.2658 103.425 22.4891 102.301 22.4894C100.916 22.4894 99.6897 22.1356 98.6211 21.4282C97.5525 20.7208 96.7122 19.7475 96.1001 18.5084C95.488 17.2692 95.182 15.8519 95.182 14.2566C95.182 12.6512 95.4931 11.2314 96.1152 9.99711C96.7372 8.76309 97.5976 7.79483 98.6964 7.09235C99.7951 6.39019 101.057 6.03901 102.482 6.03882C103.555 6.03882 104.518 6.24705 105.371 6.66352C106.213 7.07052 106.941 7.67772 107.493 8.4319V6.41518H110.714V22.113ZM107.433 11.9087C107.082 11.0156 106.528 10.3107 105.77 9.79392C105.012 9.27724 104.137 9.01891 103.144 9.01891C101.739 9.01891 100.62 9.49048 99.7876 10.4336C98.9546 11.3768 98.5382 12.6511 98.5384 14.2566C98.5384 15.8722 98.9397 17.1515 99.7424 18.0946C100.545 19.0378 101.634 19.5093 103.008 19.5093C104.022 19.5093 104.925 19.2484 105.718 18.7265C106.51 18.2051 107.082 17.5027 107.433 16.6195V11.9087Z" fill="white"/>
<path d="M24.6546 0.329834C21.9194 0.329834 19.7812 2.38993 17.8457 5.00689C15.1859 1.62028 12.9615 0.329834 10.2996 0.329834C4.87255 0.329834 0.714355 7.39265 0.714355 14.8682C0.714355 19.5462 2.97749 22.4967 6.7682 22.4967C9.49651 22.4967 11.4587 21.2104 14.947 15.1128C14.947 15.1128 16.4011 12.545 17.4014 10.7761C17.752 11.3421 18.1211 11.9519 18.509 12.6057L20.1447 15.3574C23.3312 20.6896 25.1065 22.4967 28.3235 22.4967C32.0165 22.4967 34.0716 19.5059 34.0716 14.7306C34.0716 6.90345 29.8197 0.329834 24.6546 0.329834ZM12.287 13.4618C9.4588 17.8952 8.4804 18.8888 6.90579 18.8888C5.28531 18.8888 4.3222 17.4662 4.3222 14.9294C4.3222 9.50233 7.02809 3.95297 10.2537 3.95297C12.0005 3.95297 13.4603 4.96178 15.6962 8.16274C13.5731 11.4193 12.287 13.4618 12.287 13.4618ZM22.9609 12.9037L21.0052 9.64185C20.4759 8.78107 19.9672 7.98875 19.4792 7.2649C21.2419 4.54425 22.6959 3.1886 24.4252 3.1886C28.0178 3.1886 30.8918 8.47807 30.8918 14.9753C30.8918 17.4518 30.0807 18.8888 28.4 18.8888C26.7891 18.8888 26.0196 17.825 22.9609 12.9037Z" fill="white"/>
</svg>
