<svg width="121" height="33" viewBox="0 0 121 33" fill="none" xmlns="http://www.w3.org/2000/svg">
<g clip-path="url(#clip0_167_600)">
<mask id="mask0_167_600" style="mask-type:luminance" maskUnits="userSpaceOnUse" x="0" y="0" width="121" height="33">
<path d="M120.143 0.14209H0.142822V32.6845H120.143V0.14209Z" fill="white"/>
</mask>
<g mask="url(#mask0_167_600)">
<path d="M37.5095 15.7869C37.5095 21.1075 40.9265 24.8174 45.6614 24.8174C50.3963 24.8174 53.8133 21.1075 53.8133 15.7869C53.8133 10.4662 50.3963 6.75635 45.6614 6.75635C40.9265 6.75635 37.5095 10.4662 37.5095 15.7869ZM50.6892 15.7869C50.6892 19.5943 48.6146 22.0594 45.6614 22.0594C42.7082 22.0594 40.6336 19.5943 40.6336 15.7869C40.6336 11.9794 42.7082 9.51431 45.6614 9.51431C48.6146 9.51431 50.6892 11.9794 50.6892 15.7869Z" fill="white"/>
<path d="M62.6109 24.8173C66.1987 24.8173 68.2489 21.7909 68.2489 18.1543C68.2489 14.5177 66.1987 11.4912 62.6109 11.4912C60.9513 11.4912 59.7309 12.1502 58.9255 13.1021V11.7353H55.9967V28.9421H58.9255V23.2065C59.7309 24.1583 60.9513 24.8173 62.6109 24.8173ZM58.8523 17.7882C58.8523 15.3719 60.2191 14.0539 62.0252 14.0539C64.1486 14.0539 65.2957 15.7136 65.2957 18.1543C65.2957 20.5949 64.1486 22.2546 62.0252 22.2546C60.2191 22.2546 58.8523 20.9122 58.8523 18.5448V17.7882Z" fill="white"/>
<path d="M76.175 24.8173C78.7377 24.8173 80.7635 23.4749 81.6665 21.2295L79.1526 20.2777C78.7621 21.5956 77.615 22.3278 76.175 22.3278C74.2957 22.3278 72.9777 20.9854 72.7581 18.7888H81.7398V17.8126C81.7398 14.298 79.7628 11.4912 76.053 11.4912C72.3432 11.4912 69.9513 14.3956 69.9513 18.1543C69.9513 22.1082 72.514 24.8173 76.175 24.8173ZM76.0286 13.9563C77.8835 13.9563 78.7621 15.1766 78.7865 16.5922H72.9045C73.3438 14.8593 74.5154 13.9563 76.0286 13.9563Z" fill="white"/>
<path d="M83.9374 24.5488H86.8662V17.0316C86.8662 15.201 88.2086 14.2248 89.5265 14.2248C91.1374 14.2248 91.772 15.3719 91.772 16.9583V24.5488H94.7008V16.1041C94.7008 13.3461 93.0899 11.4912 90.4052 11.4912C88.7455 11.4912 87.5984 12.2478 86.8662 13.1021V11.7353H83.9374V24.5488Z" fill="white"/>
<path d="M103.279 7.02466L96.6401 24.5487H99.7398L101.229 20.546H108.795L110.308 24.5487H113.456L106.818 7.02466H103.279ZM104.987 10.4904L107.77 17.8124H102.254L104.987 10.4904Z" fill="white"/>
<path d="M118.484 7.07568H115.36V24.5997H118.484V7.07568Z" fill="white"/>
<path d="M30.3523 13.461C31.0906 11.245 30.8363 8.81759 29.6557 6.80199C27.8801 3.71047 24.3106 2.11996 20.8245 2.86844C19.2736 1.12132 17.0455 0.127759 14.7096 0.141997C11.1462 0.133861 7.98448 2.4281 6.88821 5.8186C4.59906 6.28742 2.62313 7.7203 1.46685 9.75115C-0.321961 12.8345 0.0858362 16.7213 2.47567 19.3654C1.73736 21.5813 1.9916 24.0088 3.17228 26.0244C4.94787 29.1159 8.51736 30.7064 12.0035 29.9579C13.5533 31.705 15.7824 32.6986 18.1184 32.6833C21.6838 32.6925 24.8465 30.3962 25.9428 27.0027C28.2319 26.5339 30.2079 25.101 31.3641 23.0701C33.1509 19.9867 32.7421 16.103 30.3533 13.4589L30.3523 13.461ZM18.1204 30.5569C16.6936 30.5589 15.3116 30.0596 14.2163 29.1454C14.2662 29.1189 14.3526 29.0711 14.4085 29.0366L20.8885 25.2942C21.2201 25.1061 21.4235 24.7532 21.4214 24.3718V15.2366L24.1601 16.8179C24.1896 16.8322 24.2089 16.8606 24.213 16.8932V24.4583C24.2089 27.8223 21.4845 30.5498 18.1204 30.5569ZM5.01804 24.9606C4.30313 23.7261 4.04584 22.2789 4.29092 20.8745C4.33872 20.903 4.42313 20.9549 4.48313 20.9895L10.9631 24.7318C11.2916 24.924 11.6984 24.924 12.0279 24.7318L19.9387 20.1637V23.3264C19.9408 23.3589 19.9255 23.3905 19.9001 23.4108L13.3499 27.1928C10.4323 28.8728 6.70618 27.8742 5.01906 24.9606H5.01804ZM3.31262 10.8159C4.02448 9.57928 5.14821 8.63352 6.48652 8.14233C6.48652 8.19827 6.48346 8.29691 6.48346 8.36606V15.8518C6.48143 16.2322 6.68482 16.585 7.01533 16.7732L14.9262 21.3403L12.1875 22.9217C12.1601 22.94 12.1255 22.943 12.095 22.9298L5.5438 19.1447C2.63228 17.4586 1.63363 13.7335 3.3116 10.8169L3.31262 10.8159ZM25.8136 16.0522L17.9028 11.484L20.6414 9.90369C20.6689 9.88538 20.7035 9.88233 20.734 9.89555L27.2852 13.6776C30.2018 15.3627 31.2014 19.0939 29.5163 22.0105C28.8035 23.245 27.6808 24.1908 26.3435 24.683V16.9735C26.3465 16.5932 26.1441 16.2413 25.8147 16.0522H25.8136ZM28.5391 11.9498C28.4913 11.9203 28.4069 11.8695 28.3469 11.8349L21.8669 8.0925C21.5384 7.9003 21.1316 7.9003 20.8021 8.0925L12.8913 12.6606V9.49793C12.8892 9.46538 12.9045 9.43386 12.9299 9.41352L19.4801 5.63454C22.3977 3.95149 26.1279 4.95318 27.8099 7.87183C28.5208 9.10437 28.778 10.5474 28.537 11.9498H28.5391ZM11.4024 17.5867L8.66279 16.0054C8.6333 15.9911 8.61397 15.9627 8.60991 15.9301V8.36505C8.61194 4.99691 11.3445 2.26742 14.7126 2.26945C16.1374 2.26945 17.5163 2.76979 18.6116 3.68098C18.5618 3.70742 18.4763 3.75521 18.4194 3.78979L11.9394 7.53216C11.6079 7.7203 11.4045 8.07217 11.4065 8.45352L11.4024 17.5847V17.5867ZM12.8902 14.3793L16.414 12.3444L19.9377 14.3783V18.4471L16.414 20.481L12.8902 18.4471V14.3793Z" fill="white"/>
</g>
</g>
<defs>
<clipPath id="clip0_167_600">
<rect width="120" height="32.5424" fill="white" transform="translate(0.142822 0.14209)"/>
</clipPath>
</defs>
</svg>
