<svg width="260" height="61" viewBox="0 0 260 61" fill="none" xmlns="http://www.w3.org/2000/svg">
<g clip-path="url(#clip0_1548_1093)">
<rect y="16.4075" width="39.5807" height="39.5807" rx="6.18448" fill="#045743"/>
<path d="M9.84656 49.7642V23.6502H19.448C21.7053 23.6502 23.6225 23.8976 25.1995 24.3923C26.8075 24.8871 28.0289 25.6911 28.8638 26.8043C29.7297 27.8866 30.1626 29.3863 30.1626 31.3035C30.1626 32.7259 29.9307 33.9783 29.4668 35.0606C29.0339 36.1119 28.3691 36.9468 27.4723 37.5653C26.6065 38.1528 25.5242 38.4466 24.2255 38.4466C25.1532 38.4466 25.8798 38.6321 26.4055 39.0032C26.9312 39.3433 27.3177 39.8071 27.5651 40.3947C27.8434 40.9513 28.0289 41.5543 28.1217 42.2036C28.2145 42.853 28.2918 43.4869 28.3536 44.1054C28.4464 44.7238 28.5855 45.2649 28.7711 45.7288C28.9566 46.1617 29.2504 46.4555 29.6524 46.6101C30.0544 46.7338 30.6419 46.6565 31.4149 46.3782V49.1148C30.8274 49.6095 30.1317 49.9342 29.3277 50.0888C28.5237 50.2744 27.7352 50.228 26.9621 49.9497C26.1891 49.6714 25.5397 49.1303 25.014 48.3263C24.4883 47.4914 24.2255 46.3318 24.2255 44.8475C24.2255 43.7652 24.1791 42.853 24.0863 42.1109C23.9936 41.3687 23.7771 40.7812 23.437 40.3483C23.1277 39.8844 22.6175 39.5443 21.9063 39.3278C21.226 39.0805 20.2983 38.9413 19.1233 38.9104C17.9482 38.8485 16.433 38.864 14.5777 38.9568V49.7642H9.84656ZM14.5777 35.5244H19.2624C20.8086 35.5244 22.0609 35.4625 23.0195 35.3389C24.009 35.1842 24.7357 34.8286 25.1995 34.272C25.6943 33.7154 25.9417 32.8496 25.9417 31.6745C25.9417 30.3449 25.6479 29.3863 25.0604 28.7988C24.4729 28.2112 23.607 27.8556 22.4629 27.7319C21.3497 27.5773 19.9736 27.5 18.3348 27.5H14.5777V35.5244Z" fill="white"/>
</g>
<path d="M54.8893 50V21.5906H64.8301C67.2522 21.5906 69.3043 21.8429 70.9863 22.3475C72.702 22.8521 74.0139 23.7099 74.9222 24.921C75.8305 26.0984 76.2847 27.73 76.2847 29.8157C76.2847 31.2622 76.0324 32.5574 75.5278 33.7012C75.0568 34.8449 74.3335 35.7532 73.358 36.426C72.3824 37.0652 71.1713 37.3848 69.7248 37.3848C70.8349 37.3848 71.6927 37.6035 72.2983 38.0408C72.9374 38.4445 73.4084 38.9995 73.7112 39.706C74.0139 40.3788 74.2158 41.1021 74.3167 41.8758C74.4176 42.6495 74.4849 43.4065 74.5186 44.1465C74.5858 44.8866 74.7036 45.5258 74.8718 46.0641C75.04 46.6023 75.3259 46.9724 75.7296 47.1742C76.1669 47.376 76.7893 47.3256 77.5967 47.0228V49.5459C77.1257 49.9495 76.5202 50.2187 75.7801 50.3532C75.04 50.5214 74.2831 50.471 73.5093 50.2018C72.7692 49.9664 72.1301 49.4618 71.5918 48.688C71.0872 47.8806 70.8349 46.72 70.8349 45.2062C70.8349 43.7933 70.7676 42.6159 70.6331 41.674C70.5322 40.732 70.2798 40.0088 69.8762 39.5042C69.4725 38.9659 68.8501 38.579 68.0091 38.3436C67.1681 38.0744 66.0243 37.9399 64.5778 37.9399C63.1649 37.9062 61.3483 37.923 59.128 37.9903V50H54.8893ZM59.128 34.8618H64.9815C66.6971 34.8618 68.11 34.7608 69.2202 34.559C70.3303 34.3235 71.1545 33.8694 71.6927 33.1965C72.2646 32.4901 72.5506 31.4641 72.5506 30.1184C72.5506 28.5373 72.2142 27.3936 71.5414 26.6871C70.8686 25.9807 69.893 25.5433 68.6146 25.3751C67.3363 25.1733 65.7552 25.0724 63.8713 25.0724H59.128V34.8618ZM90.2944 50.5046C87.9732 50.5046 86.0725 50 84.5923 48.9908C83.1121 47.9479 82.0188 46.6191 81.3124 45.0044C80.6059 43.356 80.2527 41.6571 80.2527 39.9078C80.219 37.923 80.5891 36.1233 81.3628 34.5085C82.1702 32.8938 83.314 31.6154 84.7942 30.6735C86.308 29.7316 88.1078 29.2606 90.1935 29.2606C92.0101 29.2606 93.6248 29.6643 95.0377 30.4717C96.4506 31.2454 97.5776 32.3555 98.4186 33.8021C99.2596 35.215 99.7137 36.897 99.781 38.8482C99.8147 38.9491 99.8315 39.1509 99.8315 39.4537C99.8315 39.7228 99.8315 39.9583 99.8315 40.1601H84.2391C84.2391 42.3131 84.7605 43.9952 85.8034 45.2062C86.8799 46.3836 88.3601 46.9724 90.2439 46.9724C91.6568 46.9724 92.8511 46.6191 93.8266 45.9127C94.8359 45.1726 95.4582 44.197 95.6937 42.9859H99.781C99.5792 44.3988 99.0746 45.6772 98.2672 46.821C97.4598 47.9647 96.3833 48.873 95.0377 49.5459C93.6921 50.185 92.111 50.5046 90.2944 50.5046ZM84.3905 38.0912H95.5928C95.5591 37.7212 95.4582 37.2334 95.29 36.6279C95.1554 36.0224 94.8863 35.4336 94.4826 34.8618C94.079 34.2562 93.5239 33.7516 92.8174 33.3479C92.111 32.9442 91.2027 32.7424 90.0925 32.7424C89.0833 32.7424 88.2255 32.9106 87.519 33.247C86.8126 33.5834 86.2407 34.0376 85.8034 34.6095C85.366 35.1477 85.0296 35.7364 84.7942 36.3756C84.5923 36.9811 84.4578 37.553 84.3905 38.0912ZM113.138 50.5046C111.22 50.5046 109.488 50.1009 107.94 49.2935C106.393 48.4862 105.165 47.3088 104.257 45.7613C103.348 44.2138 102.894 42.33 102.894 40.1097C102.962 37.8894 103.433 35.9719 104.307 34.3571C105.216 32.7424 106.443 31.4977 107.991 30.623C109.538 29.7484 111.288 29.3111 113.239 29.3111C115.19 29.3111 116.855 29.6811 118.234 30.4212C119.647 31.1613 120.757 32.1201 121.565 33.2975C122.372 34.4749 122.86 35.7532 123.028 37.1325H119.143C118.874 35.8205 118.234 34.7945 117.225 34.0544C116.216 33.3143 114.938 32.9442 113.39 32.9442C112.045 32.9442 110.901 33.247 109.959 33.8525C109.017 34.4244 108.294 35.2318 107.789 36.2747C107.284 37.2839 107.015 38.4613 106.982 39.8069C106.982 41.9263 107.537 43.6251 108.647 44.9035C109.757 46.1818 111.321 46.821 113.34 46.821C114.786 46.821 116.048 46.4509 117.124 45.7108C118.201 44.9707 118.874 43.8942 119.143 42.4813H123.028C122.86 43.8942 122.355 45.2062 121.514 46.4173C120.707 47.6283 119.597 48.6207 118.184 49.3945C116.771 50.1346 115.089 50.5046 113.138 50.5046ZM135.775 50.5046C133.555 50.5046 131.687 50.0505 130.174 49.1422C128.66 48.2339 127.516 46.9892 126.742 45.4081C126.002 43.7933 125.632 41.9767 125.632 39.9583C125.632 37.8726 126.002 36.0392 126.742 34.4581C127.516 32.8433 128.66 31.5818 130.174 30.6735C131.687 29.7652 133.571 29.3111 135.825 29.3111C139.122 29.3111 141.628 30.2866 143.344 32.2378C145.06 34.1889 145.917 36.7624 145.917 39.9583C145.917 41.9431 145.547 43.7429 144.807 45.3576C144.101 46.9387 142.991 48.2002 141.477 49.1422C139.997 50.0505 138.096 50.5046 135.775 50.5046ZM135.775 46.9219C137.423 46.9219 138.685 46.5687 139.559 45.8622C140.434 45.1558 141.023 44.2643 141.326 43.1878C141.662 42.0777 141.83 40.9507 141.83 39.8069C141.83 38.6631 141.662 37.553 141.326 36.4765C141.023 35.3664 140.434 34.4581 139.559 33.7516C138.685 33.0115 137.423 32.6415 135.775 32.6415C134.194 32.6415 132.949 33.0115 132.041 33.7516C131.166 34.4581 130.561 35.3664 130.224 36.4765C129.888 37.553 129.72 38.6631 129.72 39.8069C129.72 40.9507 129.888 42.0777 130.224 43.1878C130.561 44.2643 131.166 45.1558 132.041 45.8622C132.949 46.5687 134.194 46.9219 135.775 46.9219ZM149.324 50V29.3615H153.26L153.411 34.1553H153.512C153.546 33.9535 153.681 33.6002 153.916 33.0956C154.151 32.591 154.505 32.0528 154.976 31.4809C155.48 30.909 156.119 30.4212 156.893 30.0175C157.701 29.5802 158.71 29.3615 159.921 29.3615C161.098 29.3615 162.074 29.597 162.848 30.068C163.621 30.5053 164.227 31.094 164.664 31.8341C165.135 32.5406 165.472 33.3143 165.673 34.1553H165.774C165.842 33.9535 166.01 33.6002 166.279 33.0956C166.548 32.591 166.935 32.0528 167.44 31.4809C167.978 30.8754 168.667 30.3707 169.508 29.9671C170.349 29.5634 171.375 29.3615 172.587 29.3615C173.898 29.3615 174.975 29.6307 175.816 30.1689C176.691 30.7071 177.38 31.4136 177.885 32.2883C178.39 33.1293 178.76 34.0376 178.995 35.0131C179.231 35.9551 179.382 36.8634 179.449 37.738C179.516 38.6127 179.55 39.3359 179.55 39.9078V50H175.463V39.8574C175.463 39.3191 175.429 38.68 175.362 37.9399C175.328 37.1661 175.177 36.4092 174.908 35.6691C174.672 34.929 174.269 34.3235 173.697 33.8525C173.125 33.3479 172.317 33.0956 171.275 33.0956C170.063 33.0956 169.105 33.432 168.398 34.1048C167.692 34.7777 167.187 35.6523 166.884 36.7288C166.615 37.8053 166.481 38.9491 166.481 40.1601V50H162.393V39.8574C162.393 39.3191 162.36 38.68 162.293 37.9399C162.259 37.1661 162.107 36.4092 161.838 35.6691C161.603 34.929 161.199 34.3235 160.627 33.8525C160.055 33.3479 159.248 33.0956 158.205 33.0956C156.994 33.0956 156.035 33.432 155.329 34.1048C154.622 34.7777 154.118 35.6523 153.815 36.7288C153.546 37.8053 153.411 38.9491 153.411 40.1601V50H149.324ZM195.063 50.5046C193.785 50.5046 192.691 50.3028 191.783 49.8991C190.875 49.4618 190.135 48.9571 189.563 48.3853C188.991 47.8134 188.57 47.2919 188.301 46.821C188.032 46.3164 187.864 45.9968 187.797 45.8622H187.696L187.04 50H183.407V21.5906H187.746V34.2058H187.847C187.881 34.0712 188.015 33.7516 188.251 33.247C188.52 32.7424 188.924 32.1873 189.462 31.5818C190 30.9763 190.723 30.4548 191.632 30.0175C192.574 29.5802 193.717 29.3615 195.063 29.3615C197.081 29.3615 198.73 29.8157 200.008 30.724C201.286 31.5986 202.245 32.8433 202.884 34.4581C203.524 36.0392 203.843 37.8894 203.843 40.0088C203.843 42.0608 203.524 43.8774 202.884 45.4585C202.279 47.0396 201.32 48.2843 200.008 49.1926C198.73 50.0673 197.081 50.5046 195.063 50.5046ZM193.852 46.8714C195.332 46.8714 196.493 46.5518 197.334 45.9127C198.208 45.2399 198.814 44.382 199.15 43.3392C199.52 42.2627 199.705 41.1357 199.705 39.9583C199.705 38.7809 199.504 37.6707 199.1 36.6279C198.73 35.585 198.091 34.744 197.182 34.1048C196.308 33.4657 195.13 33.1461 193.65 33.1461C192.372 33.1461 191.295 33.432 190.421 34.0039C189.546 34.5422 188.89 35.3327 188.453 36.3756C188.015 37.4184 187.797 38.6127 187.797 39.9583C187.797 41.3376 188.015 42.5486 188.453 43.5915C188.924 44.6343 189.613 45.4417 190.522 46.0136C191.43 46.5855 192.54 46.8714 193.852 46.8714ZM207.78 50V29.3615H211.968V50H207.78ZM209.899 26.4853C208.924 26.4853 208.251 26.233 207.881 25.7283C207.545 25.2237 207.376 24.635 207.376 23.9622C207.376 23.323 207.545 22.768 207.881 22.297C208.251 21.7924 208.924 21.5401 209.899 21.5401C210.875 21.5401 211.514 21.7924 211.817 22.297C212.153 22.768 212.322 23.323 212.322 23.9622C212.322 24.635 212.153 25.2237 211.817 25.7283C211.514 26.233 210.875 26.4853 209.899 26.4853ZM215.968 50V29.3615H219.551L220.257 34.1553H220.358C220.392 34.0207 220.526 33.7012 220.762 33.1965C220.997 32.6919 221.384 32.1537 221.922 31.5818C222.46 30.9763 223.184 30.4548 224.092 30.0175C225 29.5802 226.144 29.3615 227.523 29.3615C228.97 29.3615 230.147 29.597 231.056 30.068C231.998 30.5053 232.738 31.1108 233.276 31.8846C233.848 32.6247 234.251 33.4657 234.487 34.4076C234.722 35.3159 234.874 36.2578 234.941 37.2334C235.008 38.1753 235.042 39.0668 235.042 39.9078V50H230.955V39.8574C230.955 38.579 230.82 37.4353 230.551 36.426C230.282 35.3832 229.794 34.5758 229.088 34.0039C228.381 33.3984 227.322 33.0956 225.909 33.0956C224.496 33.0956 223.369 33.432 222.528 34.1048C221.72 34.7777 221.132 35.6523 220.762 36.7288C220.425 37.7717 220.257 38.9154 220.257 40.1601V50H215.968ZM248.047 50.5046C245.726 50.5046 243.825 50 242.345 48.9908C240.865 47.9479 239.771 46.6191 239.065 45.0044C238.358 43.356 238.005 41.6571 238.005 39.9078C237.972 37.923 238.342 36.1233 239.115 34.5085C239.923 32.8938 241.066 31.6154 242.547 30.6735C244.06 29.7316 245.86 29.2606 247.946 29.2606C249.763 29.2606 251.377 29.6643 252.79 30.4717C254.203 31.2454 255.33 32.3555 256.171 33.8021C257.012 35.215 257.466 36.897 257.533 38.8482C257.567 38.9491 257.584 39.1509 257.584 39.4537C257.584 39.7228 257.584 39.9583 257.584 40.1601H241.992C241.992 42.3131 242.513 43.9952 243.556 45.2062C244.632 46.3836 246.113 46.9724 247.996 46.9724C249.409 46.9724 250.604 46.6191 251.579 45.9127C252.588 45.1726 253.211 44.197 253.446 42.9859H257.533C257.332 44.3988 256.827 45.6772 256.02 46.821C255.212 47.9647 254.136 48.873 252.79 49.5459C251.445 50.185 249.863 50.5046 248.047 50.5046ZM242.143 38.0912H253.345C253.312 37.7212 253.211 37.2334 253.042 36.6279C252.908 36.0224 252.639 35.4336 252.235 34.8618C251.831 34.2562 251.276 33.7516 250.57 33.3479C249.863 32.9442 248.955 32.7424 247.845 32.7424C246.836 32.7424 245.978 32.9106 245.271 33.247C244.565 33.5834 243.993 34.0376 243.556 34.6095C243.119 35.1477 242.782 35.7364 242.547 36.3756C242.345 36.9811 242.21 37.553 242.143 38.0912Z" fill="#DDDDDD"/>
<defs>
<clipPath id="clip0_1548_1093">
<rect y="16.4075" width="39.5807" height="39.5807" rx="6.18448" fill="white"/>
</clipPath>
</defs>
</svg>
