<svg xmlns="http://www.w3.org/2000/svg" width="1360" height="204" fill="none"><path fill="#DDD" d="M1293.14 203.172c-16.27 0-29.6-3.538-39.97-10.613-10.38-7.311-18.05-16.626-23-27.947-4.95-11.556-7.43-23.465-7.43-35.729-.23-13.914 2.36-26.532 7.78-37.852 5.67-11.32 13.68-20.282 24.06-26.886 10.61-6.603 23.23-9.905 37.85-9.905q19.11 0 33.96 8.49 14.865 8.137 23.7 23.348c5.9 9.906 9.08 21.697 9.56 35.376.23.708.35 2.123.35 4.245v4.953h-109.31c0 15.093 3.65 26.885 10.97 35.375 7.54 8.255 17.92 12.382 31.13 12.382q14.85 0 25.11-7.429c7.08-5.188 11.44-12.028 13.09-20.518h28.66q-2.13 14.858-10.62 26.886c-5.66 8.018-13.2 14.386-22.64 19.103-9.43 4.481-20.51 6.721-33.25 6.721m-41.39-87.024h78.53c-.23-2.594-.94-6.014-2.12-10.259-.94-4.245-2.83-8.373-5.66-12.382q-4.245-6.367-11.67-10.612t-19.11-4.245c-7.07 0-13.08 1.179-18.04 3.537-4.95 2.358-8.96 5.542-12.02 9.552q-4.605 5.66-7.08 12.381c-1.41 4.245-2.36 8.254-2.83 12.028m-175.88 83.487V54.948h25.12l4.95 33.607h.71c.24-.943 1.18-3.184 2.83-6.721s4.36-7.311 8.14-11.32q5.655-6.368 15.21-10.967c6.37-3.066 14.38-4.599 24.05-4.599 10.15 0 18.4 1.651 24.77 4.953 6.6 3.066 11.79 7.31 15.56 12.735q6.015 7.784 8.49 17.688c1.65 6.368 2.71 12.971 3.19 19.81.47 6.604.7 12.854.7 18.749v70.752h-28.65V128.53c0-8.962-.94-16.981-2.83-24.056q-2.835-10.965-10.26-16.98-7.425-6.368-22.29-6.368-14.85 0-23.7 7.075c-5.66 4.717-9.78 10.849-12.38 18.396q-3.54 10.966-3.54 24.055v68.983zm-49.77-.001V54.948h29.36v144.686zm14.86-164.85c-6.84 0-11.56-1.77-14.15-5.307q-3.54-5.307-3.54-12.381 0-6.722 3.54-11.674c2.59-3.538 7.31-5.307 14.15-5.307 6.83 0 11.32 1.769 13.44 5.307q3.54 4.952 3.54 11.674 0 7.074-3.54 12.381c-2.12 3.538-6.61 5.306-13.44 5.306m-96.391 168.39q-13.443 0-22.994-4.246-9.552-4.598-15.566-10.612t-8.843-10.967q-2.83-5.306-3.538-6.721h-.708l-4.598 29.008h-25.471V.47h30.423v88.439h.708q.354-1.415 2.83-6.721 2.83-5.308 8.49-11.674 5.66-6.367 15.211-10.967 9.905-4.599 24.056-4.599 21.225 0 34.668 9.552 13.443 9.198 20.164 26.178 6.719 16.626 6.719 38.913 0 21.579-6.719 38.206-6.367 16.626-20.164 26.178-13.443 9.198-34.668 9.198m-8.49-25.471q15.565 0 24.409-6.721 9.198-7.076 12.735-18.042 3.892-11.32 3.892-23.702 0-12.381-4.245-23.348-3.893-10.966-13.443-17.687-9.198-6.722-24.763-6.722-13.443 0-22.641 6.014-9.197 5.66-13.796 16.627t-4.599 25.116q0 14.505 4.599 25.471 4.952 10.967 14.504 16.98 9.55 6.014 23.348 6.014M631.54 199.635V54.948h27.593l1.061 33.607h.707q.354-2.122 2.83-7.429 2.477-5.305 7.429-11.32 5.307-6.015 13.443-10.259 8.49-4.599 21.226-4.599 12.381 0 20.517 4.953 8.137 4.599 12.736 12.381 4.952 7.43 7.075 16.273h.707q.708-2.122 3.538-7.429 2.83-5.305 8.136-11.32 5.66-6.368 14.504-10.613t21.58-4.245q13.796 0 22.64 5.66 9.197 5.66 14.504 14.858 5.307 8.844 7.783 19.103 2.476 9.905 3.183 19.103.708 9.198.708 15.211v70.752h-28.654V128.53q0-5.661-.708-13.443-.354-8.136-3.184-15.92-2.476-7.782-8.49-12.734-6.014-5.307-16.98-5.307-12.736 0-20.164 7.075t-10.613 18.396q-2.83 11.32-2.83 24.055v68.983h-28.654V128.53q0-5.661-.708-13.443-.354-8.136-3.184-15.92-2.476-7.782-8.49-12.734-6.014-5.307-16.98-5.307-12.736 0-20.164 7.075-7.43 7.076-10.613 18.396-2.83 11.32-2.83 24.055v68.983zm-87.363 3.537q-23.348 0-39.267-9.552-15.919-9.55-24.056-26.178-7.782-16.98-7.782-38.206 0-21.932 7.782-38.559 8.137-16.98 24.056-26.532 15.92-9.55 39.621-9.551 34.668 0 52.71 20.518 18.04 20.518 18.041 54.124 0 20.872-7.783 37.853-7.428 16.626-23.347 26.531-15.565 9.552-39.975 9.552m0-25.117q17.334 0 26.532-7.429t12.381-18.749q3.538-11.674 3.538-23.702 0-12.027-3.538-23.348-3.183-11.673-12.381-19.103-9.198-7.782-26.532-7.782-16.626 0-26.178 7.782-9.198 7.429-12.735 19.103-3.538 11.32-3.538 23.348t3.538 23.702q3.537 11.32 12.735 18.749 9.552 7.43 26.178 7.429m-151.073 25.117q-20.164 0-36.437-8.49t-25.824-24.763-9.551-39.621q.707-23.348 9.905-40.329 9.55-16.98 25.824-26.178 16.272-9.197 36.791-9.197 20.517 0 35.022 7.782 14.857 7.783 23.348 20.165t10.259 26.885h-27.24q-2.83-13.796-13.442-21.58-10.613-7.781-26.886-7.782-14.15 0-24.056 6.368-9.904 6.015-15.211 16.98-5.306 10.613-5.66 24.763 0 22.287 11.674 35.73t32.899 13.442q15.212 0 26.532-7.782 11.32-7.783 14.15-22.641h27.24q-1.77 14.859-10.613 27.593-8.49 12.736-23.348 20.872-14.857 7.783-35.376 7.783m-152.52 0q-24.41 0-39.975-10.613-15.565-10.966-22.994-27.947-7.43-17.334-7.429-35.729-.354-20.871 7.783-37.852 8.49-16.98 24.055-26.886 15.92-9.905 37.852-9.905 19.104 0 33.961 8.49 14.858 8.137 23.702 23.348 8.844 14.858 9.551 35.376.354 1.062.354 4.245v4.953H198.133q0 22.64 10.966 35.375 11.32 12.382 31.131 12.382 14.857 0 25.117-7.429 10.612-7.782 13.089-20.518h28.654q-2.122 14.858-10.613 26.886t-22.64 19.103q-14.15 6.721-33.253 6.721m-41.39-87.024h78.534q-.354-3.891-2.122-10.259-1.416-6.368-5.66-12.382-4.245-6.367-11.674-10.612-7.43-4.245-19.103-4.245-10.612 0-18.042 3.537-7.428 3.537-12.028 9.552-4.598 5.66-7.075 12.381-2.122 6.367-2.83 12.028M0 199.635V.47h69.69q25.47 0 43.159 5.306 18.04 5.307 27.593 18.042 9.55 12.381 9.551 34.314 0 15.21-5.306 27.24-4.953 12.027-15.212 19.102-10.258 6.722-25.47 6.722 11.673 0 18.041 4.599 6.722 4.245 9.905 11.674 3.184 7.075 4.245 15.211a189 189 0 0 1 1.415 15.919q.708 7.783 2.477 13.443t6.014 7.783q4.599 2.123 13.089-1.062v17.688q-4.953 4.245-12.736 5.66-7.782 1.769-15.919-1.061-7.782-2.476-13.442-10.613-5.307-8.49-5.307-24.409 0-14.857-1.415-24.763-1.06-9.905-5.306-15.212-4.245-5.66-13.09-8.136-8.843-2.83-24.055-2.83-14.858-.354-38.205.354v84.194zM29.716 93.508H70.75q18.042 0 29.716-2.123 11.674-2.475 17.334-9.551 6.014-7.43 6.014-21.58 0-16.626-7.075-24.055t-20.518-9.197q-13.443-2.123-33.253-2.123H29.716z"/></svg>