<svg xmlns="http://www.w3.org/2000/svg" width="1360" height="204" fill="none"><path fill="#DDD" d="M0 200.44V0h58.35q25.26 0 42.339 4.984 17.079 4.63 25.973 16.733 8.895 11.75 8.895 33.822 0 12.46-4.981 24.21-4.981 11.393-15.655 18.869-10.674 7.12-27.752 7.12 14.944 0 23.127 5.697 8.54 5.34 12.097 14.24t4.269 19.226q.712 10.324.356 20.293 0 9.968.712 17.801.711 7.476 4.269 11.036 3.558 3.205 12.097.356v8.901l-3.914.356q-3.558.712-8.894-.712-4.981-1.068-8.895-6.408-3.558-5.341-3.558-17.089 0-23.498-1.779-37.383-1.78-13.884-7.472-20.649-5.692-6.764-17.79-8.9-11.74-2.493-31.665-2.137H9.606v90.074zm9.606-98.974h57.639q20.28 0 33.444-4.272 13.166-4.629 19.569-14.597 6.404-9.969 6.404-27.058 0-20.293-8.183-29.905-7.827-9.969-23.126-13.173Q80.409 9.257 58.35 9.257H9.606zM233.271 204q-22.415 0-37.359-11.037-14.943-11.036-22.415-28.481-7.115-17.445-6.76-35.958.357-18.157 7.828-34.534 7.471-16.734 22.059-27.058 14.943-10.325 36.647-10.325 17.433 0 30.954 7.833 13.52 7.833 21.703 22.073 8.539 14.24 9.962 33.466.356 2.136.356 4.628v4.273H176.344q0 29.906 14.587 48.062 14.944 18.157 42.34 18.157 19.924 0 34.512-10.324 14.943-10.681 18.501-28.838h9.606q-2.846 14.241-11.741 25.278-8.895 10.68-22.059 16.733Q248.925 204 233.271 204m-55.86-84.021h108.873q-.356-8.188-3.558-17.445-3.202-9.612-9.606-17.801-6.404-8.544-16.367-13.885-9.962-5.34-23.482-5.34-12.097 0-21.704 4.272-9.606 3.916-16.722 11.393-7.116 7.12-11.741 17.089-4.27 9.969-5.693 21.717M388.495 204q-20.28 0-35.579-8.545-14.944-8.9-23.483-24.921-8.538-16.377-8.539-38.45.712-22.074 9.251-39.163t23.838-26.701 35.579-9.613q16.366 0 29.175 6.053 13.164 6.052 21.704 16.733 8.895 10.68 12.097 25.277h-9.251q-3.913-17.8-18.501-28.126-14.587-10.324-35.224-10.324-17.433 0-30.598 8.544-13.164 8.19-20.636 23.142t-7.827 34.534q0 28.125 15.654 45.214 16.01 16.734 42.34 16.733 20.991 0 35.935-10.324 14.943-10.324 18.857-28.126h9.251q-3.202 14.241-12.453 25.278-8.895 10.68-22.059 16.733Q404.861 204 388.495 204m153.843 0q-21.704 0-36.291-9.257-14.587-9.612-22.06-25.989-7.115-16.732-7.115-38.094 0-21.717 7.115-38.45 7.473-16.735 22.06-25.99 14.588-9.612 36.291-9.613 31.665 0 48.387 20.293 16.723 20.294 16.723 53.76 0 20.65-7.116 37.382-6.76 16.733-21.348 26.345Q564.752 204 542.338 204m0-9.257q21.347 0 33.088-9.612 12.098-9.612 17.078-24.21 4.981-14.952 4.981-30.261 0-15.666-4.981-30.618-4.98-14.953-17.078-24.566-11.741-9.612-33.088-9.612-20.992 0-33.445 9.612-12.097 9.613-17.078 24.566t-4.981 30.618q0 15.309 4.981 30.261 4.981 14.598 17.078 24.21 12.453 9.612 33.445 9.612m95.07 5.697V56.607h7.471l1.779 40.587h.712q1.067-3.917 3.914-10.325 2.846-6.765 8.183-13.529 5.693-7.12 14.587-11.748 8.895-4.985 22.771-4.985 14.943 0 24.194 6.053 9.25 6.052 13.876 15.309 4.982 9.255 7.116 19.225h.711q1.068-3.917 4.27-10.325 3.202-6.765 8.895-13.529 6.048-7.12 15.299-11.748 9.606-4.985 23.482-4.985 14.232 0 23.127 5.697 9.25 5.34 14.231 14.24 4.982 8.545 7.116 18.514 2.135 9.612 2.491 18.869.711 8.9.711 14.597v71.916h-9.25v-71.916q0-6.409-.712-16.733-.711-10.326-4.269-20.65-3.558-10.68-11.741-17.8-8.184-7.477-23.127-7.477-16.01 0-27.04 9.256-10.674 8.901-16.367 24.21-5.337 14.953-5.337 33.466v67.644h-9.25v-71.916q0-6.409-.712-16.733-.711-10.326-4.269-20.65-3.558-10.68-11.741-17.8-8.184-7.477-23.127-7.477-16.01 0-27.04 9.256-10.674 8.901-16.367 24.21-5.337 14.953-5.337 33.466v67.644zm305.61 3.56q-14.588 0-24.905-5.34-10.319-5.341-17.078-12.817-6.76-7.476-10.318-14.241t-4.626-9.256h-.711l-1.779 38.094h-7.828V0h9.963v97.906h.711q1.068-2.849 4.27-9.257 3.202-6.764 9.606-14.24 6.405-7.478 16.722-12.461 10.674-5.34 25.617-5.34 20.637 0 35.224 9.968 14.942 9.969 22.774 26.702c5.45 11.155 8.18 23.378 8.18 36.67 0 13.766-2.73 26.227-8.18 37.382q-7.832 16.733-22.774 26.701Q963.298 204 943.018 204m1.068-9.969q18.857 0 30.954-9.256 12.452-9.256 18.145-23.854 6.048-14.952 6.049-30.973 0-16.377-6.76-30.618-6.405-14.597-19.569-23.498-12.808-9.256-31.666-9.256-14.587 0-27.04 7.476-12.453 7.12-20.28 21.362-7.472 14.24-7.472 34.534 0 20.648 8.183 35.246 8.184 14.241 21.348 21.717 13.164 7.12 28.108 7.12m95.654 6.409V56.607h9.61V200.44zm4.98-168.398c-3.79 0-6.4-.95-7.82-2.848-1.43-2.136-2.14-4.51-2.14-7.12 0-2.612.71-4.866 2.14-6.765 1.42-1.899 4.03-2.848 7.82-2.848 4.04 0 6.64.95 7.83 2.848 1.19 1.899 1.78 4.153 1.78 6.764s-.59 4.985-1.78 7.12c-1.19 1.9-3.79 2.849-7.83 2.849m38.26 168.398V56.607h7.47l1.78 40.587h.71c.71-1.9 2.02-4.985 3.91-9.257 2.14-4.51 5.22-9.138 9.25-13.885 4.27-4.747 9.73-8.782 16.37-12.104q10.32-5.34 25.26-5.34c9.73 0 17.91 1.305 24.55 3.916s12.1 6.29 16.37 11.036q6.405 6.765 9.6 16.021c2.38 6.171 3.92 12.698 4.63 19.581.95 6.883 1.42 14.004 1.42 21.362v71.916h-9.25v-71.916q0-19.582-4.62-33.466c-2.85-9.494-7.71-16.733-14.59-21.718-6.64-4.984-15.77-7.476-27.4-7.476-12.33 0-22.65 3.085-30.95 9.256-8.3 5.934-14.59 14.004-18.86 24.21-4.27 9.968-6.4 21.124-6.4 33.466v67.644zm214.04 3.56q-22.41 0-37.35-11.037c-9.97-7.357-17.44-16.851-22.42-28.481-4.74-11.63-7-23.616-6.76-35.958q.36-18.157 7.83-34.534c4.98-11.156 12.33-20.175 22.06-27.058 9.96-6.883 22.18-10.325 36.64-10.325q17.445 0 30.96 7.833c9.01 5.221 16.25 12.58 21.7 22.073 5.69 9.494 9.02 20.649 9.96 33.466q.36 2.136.36 4.628v4.273h-119.9c0 19.937 4.86 35.958 14.59 48.062q14.94 18.157 42.33 18.157c13.29 0 24.79-3.441 34.52-10.324 9.96-7.121 16.13-16.733 18.5-28.838h9.6c-1.89 9.494-5.81 17.92-11.74 25.278-5.93 7.12-13.28 12.698-22.06 16.733-8.77 4.035-18.38 6.052-28.82 6.052m-55.85-84.021h108.87c-.24-5.459-1.43-11.274-3.56-17.445-2.13-6.408-5.34-12.342-9.61-17.801-4.27-5.696-9.72-10.325-16.36-13.885q-9.96-5.34-23.49-5.34c-8.06 0-15.29 1.424-21.7 4.272-6.4 2.61-11.98 6.409-16.72 11.393-4.74 4.747-8.66 10.443-11.74 17.089-2.85 6.646-4.75 13.885-5.69 21.717"/></svg>