<svg xmlns="http://www.w3.org/2000/svg" width="123" height="91" fill="none"><path fill="#00B58A" d="M.08 90.827v-8.48q.16-.16 3.2-2.08 3.04-2.08 7.84-5.44 4.96-3.36 10.72-7.84a193 193 0 0 0 11.52-9.44q5.76-5.12 10.4-10.4t7.2-10.24q3.84-8.001 2.24-14.4-1.44-6.4-6.88-10.08t-13.6-3.68q-9.44.16-15.36 5.92-5.76 5.6-5.44 16.8l-9.44-.96q-.32-9.6 3.52-16.32t11.04-10.24q7.2-3.68 16.64-3.68 8.64 0 15.2 3.04 6.72 3.04 10.56 8.48 3.84 5.28 4.16 12.32.48 6.879-3.36 14.4-2.88 5.6-8.32 11.52-5.44 5.919-12 11.52-6.56 5.44-12.8 9.92-6.08 4.32-10.56 7.2-4.32 2.72-5.44 3.2h54.4v8.96zm116.51-15.36-14.08-14.08-13.76 13.76-5.6-5.6 13.92-13.76-13.76-13.76 5.6-5.6 13.6 13.76 13.92-13.92 5.6 5.6-13.92 13.92 13.92 14.08z"/></svg>