<svg xmlns="http://www.w3.org/2000/svg" width="124" height="93" fill="none"><path fill="#00B58A" d="M33.48 92.427q-8.96 0-15.84-2.88-6.88-3.04-11.36-8.32-4.32-5.44-6.24-12.64l10.4-1.12q0 .64.96 3.2 1.12 2.56 3.52 5.6 2.56 2.88 7.04 5.12 4.64 2.24 11.68 2.24 7.84 0 13.12-3.04 5.28-3.201 8.16-8.16 2.88-4.96 3.2-10.24.48-5.92-2.08-11.2t-7.84-8.8-13.44-3.52q-5.92 0-10.08 1.6-4.16 1.44-6.72 3.52-2.56 1.92-3.68 3.52t-1.12 1.76l-10.08-2.08L7.56.746h56.16v9.12H15.4l-3.52 32.32 1.28-1.6q1.44-1.761 4.48-3.84 3.04-2.241 7.84-3.84 4.8-1.76 11.52-1.76 11.04 0 18.08 4.64 7.04 4.48 10.24 11.68 3.2 7.04 2.72 14.88-.48 7.52-4.64 14.56-4.16 6.88-11.68 11.2t-18.24 4.32m84.766-16.96-14.08-14.08-13.76 13.76-5.6-5.6 13.92-13.76-13.76-13.76 5.6-5.6 13.6 13.76 13.92-13.92 5.6 5.6-13.92 13.92 13.92 14.08z"/></svg>