<svg xmlns="http://www.w3.org/2000/svg" width="260" height="61" fill="none"><g clip-path="url(#a)"><rect width="39.581" height="39.581" y="16.407" fill="#045743" rx="6.184"/><path fill="#fff" d="M9.847 49.764V23.65h9.601q3.385 0 5.752.742 2.412.743 3.664 2.412 1.299 1.624 1.299 4.5 0 2.133-.696 3.757-.65 1.576-1.995 2.504-1.299.882-3.247.882 1.392 0 2.18.556.79.51 1.16 1.392.417.835.557 1.809t.232 1.901q.139.928.417 1.624.28.65.881.881.603.186 1.763-.232v2.737a4.5 4.5 0 0 1-2.087.974 4.1 4.1 0 0 1-2.366-.14q-1.16-.417-1.948-1.623-.788-1.252-.788-3.479 0-1.623-.14-2.736-.139-1.113-.649-1.763-.465-.696-1.53-1.02-1.022-.372-2.784-.418-1.763-.092-4.545.047v10.807zm4.73-14.24h4.685q2.32 0 3.758-.185 1.484-.232 2.18-1.067.741-.835.742-2.597 0-1.995-.882-2.876-.88-.882-2.597-1.067-1.67-.232-4.128-.232h-3.757z"/></g><path fill="#DDD" d="M54.89 50V21.59h9.94q3.633 0 6.156.758 2.574.756 3.936 2.573 1.363 1.766 1.363 4.895 0 2.169-.757 3.885-.707 1.716-2.17 2.725-1.464.96-3.633.959 1.665 0 2.573.656a3.6 3.6 0 0 1 1.413 1.665q.454 1.01.606 2.17.15 1.16.202 2.27.1 1.11.353 1.918.252.807.858 1.11.656.303 1.867-.151v2.523q-.707.606-1.817.807-1.11.252-2.27-.151-1.11-.353-1.918-1.514-.757-1.21-.757-3.482 0-2.12-.202-3.532-.15-1.413-.757-2.17-.606-.807-1.867-1.16-1.261-.405-3.431-.404-2.12-.05-5.45.05V50zm4.238-15.138h5.853q2.574 0 4.24-.303 1.664-.353 2.472-1.362.858-1.06.858-3.079 0-2.37-1.01-3.43-1.008-1.06-2.926-1.313-1.918-.303-4.744-.303h-4.743zm31.166 15.643q-3.48 0-5.702-1.514-2.22-1.565-3.28-3.987a12.8 12.8 0 0 1-1.06-5.096q-.05-2.977 1.11-5.4 1.212-2.421 3.432-3.835 2.271-1.412 5.4-1.412 2.724 0 4.844 1.21 2.12 1.16 3.38 3.331 1.263 2.12 1.363 5.046.05.152.05.606v.706H84.24q0 3.23 1.564 5.046 1.615 1.767 4.44 1.766 2.12 0 3.584-1.06 1.513-1.11 1.867-2.926h4.087a8.7 8.7 0 0 1-1.514 3.835q-1.21 1.716-3.23 2.725-2.017.959-4.743.959M84.391 38.09h11.202q-.051-.555-.303-1.463a4.9 4.9 0 0 0-.807-1.766q-.606-.909-1.666-1.514-1.059-.606-2.724-.606-1.515 0-2.574.505-1.059.504-1.716 1.362a6.2 6.2 0 0 0-1.009 1.767 9 9 0 0 0-.403 1.715m28.747 12.414q-2.877 0-5.198-1.212-2.32-1.21-3.683-3.532-1.363-2.32-1.363-5.651.102-3.33 1.413-5.753 1.363-2.423 3.684-3.734 2.321-1.312 5.248-1.312t4.995 1.11q2.12 1.11 3.331 2.877a8.5 8.5 0 0 1 1.463 3.834h-3.885q-.404-1.967-1.918-3.078t-3.835-1.11q-2.018 0-3.431.908-1.413.858-2.17 2.423-.757 1.513-.807 3.532 0 3.18 1.665 5.096 1.665 1.918 4.693 1.918 2.17 0 3.784-1.11 1.615-1.11 2.019-3.23h3.885q-.252 2.12-1.514 3.936-1.21 1.817-3.33 2.977-2.12 1.11-5.046 1.11m22.637 0q-3.33 0-5.601-1.363a8.76 8.76 0 0 1-3.432-3.734q-1.11-2.422-1.11-5.45 0-3.128 1.11-5.5 1.161-2.422 3.432-3.784 2.27-1.363 5.651-1.363 4.945 0 7.519 2.927t2.573 7.72q0 2.977-1.11 5.4-1.059 2.37-3.33 3.784-2.22 1.362-5.702 1.363m0-3.583q2.472 0 3.784-1.06a5.16 5.16 0 0 0 1.767-2.674 11.6 11.6 0 0 0 .504-3.381q0-1.716-.504-3.33a5.16 5.16 0 0 0-1.767-2.725q-1.311-1.11-3.784-1.11-2.372 0-3.734 1.11-1.312 1.059-1.817 2.724a11.1 11.1 0 0 0-.504 3.33q0 1.717.504 3.382a5.46 5.46 0 0 0 1.817 2.674q1.362 1.06 3.734 1.06M149.324 50V29.362h3.936l.151 4.793h.101q.051-.303.404-1.06.353-.756 1.06-1.614.756-.858 1.917-1.464 1.212-.655 3.028-.655 1.766 0 2.927.706a4.8 4.8 0 0 1 1.816 1.766q.707 1.06 1.009 2.321h.101q.102-.303.505-1.06.404-.756 1.161-1.614.807-.909 2.068-1.514t3.079-.605q1.967 0 3.229.807a5.94 5.94 0 0 1 2.069 2.12 9.7 9.7 0 0 1 1.11 2.724q.354 1.413.454 2.725t.101 2.17V50h-4.087V39.857q0-.807-.101-1.917a7.6 7.6 0 0 0-.454-2.27 3.8 3.8 0 0 0-1.211-1.818q-.858-.756-2.422-.756-1.817 0-2.877 1.009t-1.514 2.624a14 14 0 0 0-.403 3.431V50h-4.088V39.857q0-.807-.1-1.917a7.6 7.6 0 0 0-.455-2.27 3.8 3.8 0 0 0-1.211-1.818q-.858-.756-2.422-.756-1.817 0-2.876 1.009-1.06 1.009-1.514 2.624a14 14 0 0 0-.404 3.431V50zm45.739.505q-1.918 0-3.28-.606-1.362-.656-2.22-1.514t-1.262-1.564a54 54 0 0 1-.504-.959h-.101L187.04 50h-3.633V21.59h4.339v12.616h.101q.05-.202.404-.959.404-.758 1.211-1.665.807-.909 2.17-1.565 1.413-.655 3.431-.655 3.027 0 4.945 1.362 1.917 1.313 2.876 3.734.96 2.371.959 5.55 0 3.08-.959 5.45-.908 2.372-2.876 3.735-1.917 1.312-4.945 1.312m-1.211-3.634q2.22 0 3.482-.958a5.2 5.2 0 0 0 1.816-2.574q.555-1.614.555-3.38a9.1 9.1 0 0 0-.605-3.331 5.1 5.1 0 0 0-1.918-2.523q-1.311-.96-3.532-.959-1.917 0-3.229.858-1.312.807-1.968 2.372t-.656 3.582q0 2.069.656 3.634.706 1.564 2.069 2.422t3.33.857M207.78 50V29.362h4.188V50zm2.119-23.515q-1.463 0-2.018-.757-.504-.756-.505-1.766 0-.959.505-1.665.555-.757 2.018-.757 1.464 0 1.918.757.505.706.505 1.665 0 1.01-.505 1.766-.454.757-1.918.757M215.968 50V29.362h3.583l.706 4.793h.101q.05-.201.404-.959.353-.756 1.16-1.614.808-.909 2.17-1.565t3.431-.655q2.17 0 3.533.706 1.413.656 2.22 1.817.858 1.11 1.211 2.523.353 1.362.454 2.825.1 1.413.101 2.675V50h-4.087V39.857q0-1.917-.404-3.431-.404-1.564-1.463-2.422-1.06-.909-3.179-.908-2.12 0-3.381 1.009-1.212 1.009-1.766 2.624-.505 1.564-.505 3.431V50zm32.079.505q-3.482 0-5.702-1.514-2.22-1.565-3.28-3.987a12.8 12.8 0 0 1-1.06-5.096q-.05-2.977 1.11-5.4 1.211-2.421 3.432-3.835 2.27-1.412 5.399-1.412 2.725 0 4.844 1.21 2.12 1.16 3.381 3.331 1.262 2.12 1.362 5.046.051.152.051.606v.706h-15.592q0 3.23 1.564 5.046 1.615 1.767 4.44 1.766 2.12 0 3.583-1.06 1.514-1.11 1.867-2.926h4.087a8.7 8.7 0 0 1-1.513 3.835q-1.211 1.716-3.23 2.725-2.018.959-4.743.959m-5.904-12.414h11.202q-.05-.555-.303-1.463a4.9 4.9 0 0 0-.807-1.766q-.606-.909-1.665-1.514-1.06-.606-2.725-.606-1.513 0-2.574.505-1.06.504-1.715 1.362a6.2 6.2 0 0 0-1.009 1.767 9 9 0 0 0-.404 1.715"/><defs><clipPath id="a"><rect width="39.581" height="39.581" y="16.407" fill="#fff" rx="6.184"/></clipPath></defs></svg>